 <svg width="113" height="100" viewBox="0 0 113 100" fill="none" xmlns="http://www.w3.org/2000/svg">
        <path d="M98.8179 41.1399L62.1353 10.125C59.278 7.67498 55.0858 7.67498 52.2285 10.125L15.5459 41.1399C13.203 43.1499 12.0316 45.8999 12.0316 48.7499V84.3749C12.0316 90.2249 16.8247 94.9999 22.7019 94.9999H91.6619C97.5391 94.9999 102.332 90.2249 102.332 84.3749V48.7499C102.332 45.8999 101.161 43.1499 98.8179 41.1399Z" fill="#111827"/>
        <path d="M57.1816 6.13793L93.8642 37.1528C96.7215 39.6028 97.8929 42.3528 97.8929 45.2028V80.8278C97.8929 86.6778 93.0998 91.4528 87.2226 91.4528H48.2626C42.3854 91.4528 37.5923 86.6778 37.5923 80.8278V45.2028C37.5923 42.3528 38.7637 39.6028 41.1066 37.1528L77.7892 6.13793C74.9319 3.68793 70.7397 3.68793 67.8824 6.13793L57.1816 15.3629V6.13793Z" fill="#3B82F6"/>
        </svg>