<svg xmlns="http://www.w3.org/2000/svg" viewBox="0 0 800 600" width="800" height="600">
  <rect width="800" height="600" fill="#ffffff"/>
  <rect width="800" height="600" fill="#00BCD4" fill-opacity="0.05"/>
  <circle cx="400" cy="300" r="200" fill="#00BCD4" fill-opacity="0.1"/>
  <g transform="translate(250, 150) scale(3)" fill="none" stroke="#00BCD4" stroke-width="8" stroke-linecap="round" stroke-linejoin="round">
    <path d="M9 12h.01"/><path d="M15 12h.01"/><path d="M10 16c.5.3 1.2.5 2 .5s1.5-.2 2-.5"/><path d="M12 2a10 10 0 1 0 10 10A10 10 0 0 0 12 2zm0 18a8 8 0 1 1 8-8 8 8 0 0 1-8 8z"/>
  </g>
</svg>