<svg xmlns="http://www.w3.org/2000/svg" viewBox="0 0 800 600" width="800" height="600">
  <rect width="800" height="600" fill="#ffffff"/>
  <rect width="800" height="600" fill="#00BCD4" fill-opacity="0.05"/>
  <circle cx="400" cy="300" r="200" fill="#00BCD4" fill-opacity="0.1"/>
  <g transform="translate(250, 150) scale(3)" fill="none" stroke="#00BCD4" stroke-width="8" stroke-linecap="round" stroke-linejoin="round">
    <path d="M14 2H6a2 2 0 0 0-2 2v16a2 2 0 0 0 2 2h8a2 2 0 0 0 2-2V4a2 2 0 0 0-2-2z"/><path d="M10 12V2"/><path d="M14 2c0 2-2 2-2 2H8c0-2-2-4-2-4"/>
  </g>
</svg>